<svg width="168" height="169" viewBox="0 0 168 169" fill="none" xmlns="http://www.w3.org/2000/svg">
<circle cx="90.5" cy="91.5" r="77.5" fill="black" fill-opacity="0.05"/>
<path d="M74.8813 150C33.5839 150 0 116.297 0 75C0 33.7025 33.5839 0 74.8813 0C116.179 0 149.881 33.5839 149.881 75C149.881 116.416 116.297 150 74.8813 150ZM74.8813 7.12025C37.5 7.12025 7.12025 37.6187 7.12025 75C7.12025 112.381 37.5 142.88 75 142.88C112.5 142.88 142.88 112.5 142.88 75C142.88 37.5 112.381 7.12025 74.8813 7.12025ZM70.2532 103.837H69.4225V103.718H68.9478L68.7104 103.6C68.5918 103.6 68.5918 103.6 68.4731 103.481H68.2358L68.1171 103.362L67.7611 103.244L67.5237 103.006L37.5 77.7294C36.788 77.1361 36.3133 76.3054 36.1946 75.356C36.076 74.4067 36.432 73.4573 37.0253 72.7453C37.7373 71.9146 38.6867 71.4399 39.7548 71.4399C40.5854 71.4399 41.4161 71.7959 42.0095 72.2706L69.5411 95.5301L113.568 51.5032C114.28 50.7911 115.111 50.4351 116.06 50.4351C117.01 50.4351 117.959 50.7911 118.552 51.5032C119.264 52.2152 119.62 53.0459 119.62 53.9953C119.62 54.9446 119.264 55.894 118.552 56.4873L72.2706 102.769L71.9146 103.006L71.7959 103.125C71.6772 103.244 71.5586 103.244 71.4399 103.362C71.4399 103.481 71.4399 103.481 71.3212 103.481L71.2025 103.6C71.0839 103.6 70.8465 103.718 70.8465 103.718C70.7279 103.718 70.7279 103.718 70.6092 103.837H70.2532Z" fill="black"/>
</svg>
