<svg width="22" height="18" viewBox="0 0 22 18" fill="none" xmlns="http://www.w3.org/2000/svg">
<path fill-rule="evenodd" clip-rule="evenodd" d="M11 0.460022C7.98291 0.460022 5.952 2.33002 5.12616 4.32012C2.57999 4.7313 0.260925 6.48835 0.260925 9.43436C0.260925 12.5501 2.95119 14.6129 6.00546 14.6129H8.33625C8.75046 14.6129 9.08625 14.2771 9.08625 13.8629C9.08625 13.4486 8.75046 13.1129 8.33625 13.1129H6.00546C3.56574 13.1129 1.76093 11.5229 1.76093 9.43436C1.76093 7.3586 3.47418 5.96809 5.74342 5.75251C6.04207 5.72414 6.29508 5.52053 6.38668 5.23486C6.90911 3.60551 8.50353 1.96002 11 1.96002C13.6442 1.96002 15.9164 3.81323 16.2475 6.98176C16.286 7.34965 16.5869 7.63458 16.9563 7.65288C17.7258 7.69099 18.5762 7.95533 19.2152 8.42996C19.8356 8.89085 20.2391 9.52999 20.2391 10.3833C20.2391 11.2839 19.8776 11.9353 19.3059 12.3801C18.7139 12.8407 17.8482 13.1129 16.827 13.1129H13.6638C13.2495 13.1129 12.9138 13.4486 12.9138 13.8629C12.9138 14.2771 13.2495 14.6129 13.6638 14.6129H16.827C18.0948 14.6129 19.3103 14.2771 20.227 13.564C21.1641 12.8349 21.7391 11.7465 21.7391 10.3833C21.7391 8.97288 21.0396 7.91658 20.1096 7.22582C19.3803 6.68405 18.4999 6.35584 17.6544 6.22042C17.024 2.66229 14.2519 0.460022 11 0.460022ZM11.5303 6.00715C11.2374 5.71425 10.7626 5.71425 10.4697 6.00715L7.80591 8.6709C7.51302 8.96379 7.51302 9.43867 7.80591 9.73156C8.09881 10.0245 8.57368 10.0245 8.86657 9.73156L10.25 8.34814V17.21C10.25 17.6242 10.5858 17.96 11 17.96C11.4142 17.96 11.75 17.6242 11.75 17.21V8.34814L13.1334 9.73156C13.4263 10.0245 13.9012 10.0245 14.1941 9.73156C14.487 9.43867 14.487 8.96379 14.1941 8.6709L11.5303 6.00715Z" fill="black"/>
</svg>
