<svg width="417" height="124" viewBox="0 0 417 124" fill="none" xmlns="http://www.w3.org/2000/svg">
<path fill-rule="evenodd" clip-rule="evenodd" d="M150.348 18.2751H156.662C158.221 18.2751 159.332 17.8268 159.994 16.9304C160.618 16.0339 160.93 14.8061 160.93 13.247C160.93 12.5844 160.813 11.8438 160.579 11.0253C160.345 10.2068 160.072 9.5247 159.761 8.97903C159.994 8.74516 160.287 8.5308 160.638 8.33591C160.988 8.14102 161.398 8.04358 161.865 8.04358C162.723 8.04358 163.424 8.55028 163.97 9.56368C164.516 10.5771 164.789 11.9803 164.789 13.7732C164.789 16.5016 164.184 18.7233 162.976 20.4383C161.768 22.1143 159.761 22.9523 156.954 22.9523H150.348H148.594H129.183C129.105 22.7574 129.027 22.4651 128.949 22.0753C128.832 21.6466 128.774 21.1983 128.774 20.7306C128.774 19.9121 128.949 19.308 129.3 18.9182C129.612 18.4894 130.138 18.2751 130.879 18.2751H137.602V8.6867C137.758 8.56977 138.011 8.45284 138.362 8.33591C138.713 8.21898 139.083 8.16051 139.473 8.16051C140.097 8.16051 140.584 8.31642 140.935 8.62824C141.285 8.94005 141.461 9.3688 141.461 9.91448V18.2751H148.594H150.348ZM146.196 25.9227H148.944H152.16H163.912C163.99 26.1176 164.067 26.4294 164.145 26.8581C164.262 27.2479 164.321 27.6572 164.321 28.0859C164.321 28.9434 164.165 29.5865 163.853 30.0153C163.502 30.405 162.957 30.5999 162.216 30.5999H152.16H148.944H146.43C144.248 30.5999 142.65 31.2236 141.636 32.4708C140.623 33.6791 140.116 35.3162 140.116 37.3819C140.116 38.941 140.311 40.3247 140.701 41.533C141.09 42.7413 141.539 43.7742 142.045 44.6317H148.944H152.16H163.912C163.99 44.8266 164.067 45.1189 164.145 45.5087C164.262 45.8984 164.321 46.3272 164.321 46.7949C164.321 47.6134 164.165 48.2371 163.853 48.6658C163.502 49.0946 162.957 49.3089 162.216 49.3089H152.16H148.944H142.279C141.461 49.3089 140.798 49.153 140.291 48.8412C139.746 48.4904 139.22 47.9058 138.713 47.0872C138.128 46.0738 137.583 44.7291 137.076 43.0531C136.53 41.3771 136.257 39.4867 136.257 37.3819C136.257 33.835 137.076 31.0482 138.713 29.0214C140.311 26.9556 142.805 25.9227 146.196 25.9227ZM153.278 70.4673C155.49 70.0052 157.242 69.0826 158.533 67.6995C160.131 65.9065 160.93 63.4705 160.93 60.3913C160.93 58.7542 160.657 57.2731 160.111 55.9479C159.566 54.6227 158.981 53.5703 158.357 52.7907C158.63 52.362 158.961 52.0307 159.351 51.7968C159.702 51.524 160.111 51.3876 160.579 51.3876C161.32 51.3876 162.021 51.8163 162.684 52.6738C163.307 53.4923 163.814 54.6032 164.204 56.0064C164.594 57.3706 164.789 58.9102 164.789 60.6251C164.789 63.6264 164.243 66.2378 163.152 68.4595C162.06 70.6423 160.443 72.3378 158.299 73.5461C156.116 74.7154 153.466 75.3 150.348 75.3C148.126 75.3 146.158 74.9882 144.443 74.3646C142.689 73.702 141.207 72.8055 139.999 71.6751C138.791 70.5058 137.875 69.1221 137.251 67.5241C136.589 65.926 136.257 64.1915 136.257 62.3206C136.257 59.943 136.764 57.8578 137.777 56.0648C138.791 54.2329 140.214 52.8102 142.045 51.7968C143.838 50.7445 145.904 50.2183 148.243 50.2183C149.1 50.2183 149.724 50.4132 150.114 50.8029C150.464 51.1927 150.679 51.7384 150.757 52.44L153.278 70.4673ZM147.424 54.6617L149.606 70.7331C146.619 70.655 144.313 69.8776 142.689 68.4011C140.935 66.803 140.058 64.7957 140.058 62.3791C140.058 60.0405 140.759 58.2086 142.162 56.8833C143.527 55.5581 145.281 54.8176 147.424 54.6617ZM136.491 76.1949C136.491 75.5323 136.667 75.0061 137.017 74.6163C137.368 74.1876 137.875 73.9732 138.538 73.9732C139.044 73.9732 139.999 74.1876 141.402 74.6163C142.805 75.0451 144.482 75.6102 146.43 76.3118C148.379 77.0134 150.426 77.793 152.569 78.6505C154.674 79.469 156.72 80.3265 158.708 81.2229C160.657 82.0804 162.352 82.8795 163.795 83.62C163.951 83.8149 164.087 84.1657 164.204 84.6724C164.321 85.1401 164.379 85.6468 164.379 86.1925C164.379 86.8551 164.262 87.4398 164.029 87.9465C163.834 88.4532 163.541 88.804 163.152 88.9989C162.372 89.4276 161.242 89.9928 159.761 90.6944C158.24 91.357 156.525 92.0781 154.616 92.8576C152.706 93.6371 150.737 94.4362 148.711 95.2547C146.645 96.0342 144.676 96.7553 142.805 97.4179C140.896 98.0805 139.22 98.6262 137.777 99.055C137.388 98.7821 137.076 98.4118 136.842 97.9441C136.608 97.4764 136.491 97.0087 136.491 96.5409C136.491 95.8394 136.667 95.2937 137.017 94.9039C137.368 94.5141 137.953 94.1828 138.771 93.91L149.237 90.2851C150.133 89.9733 151.244 89.564 152.569 89.0573L156.545 87.5372C157.87 87.0305 158.981 86.6213 159.877 86.3095V86.0756C155.941 84.5165 152.063 83.0549 148.243 81.6907C144.384 80.3265 140.623 79.1572 136.959 78.1827C136.647 77.676 136.491 77.0134 136.491 76.1949ZM153.278 117.354C155.49 116.892 157.242 115.969 158.533 114.586C160.131 112.793 160.93 110.357 160.93 107.278C160.93 105.641 160.657 104.16 160.111 102.835C159.566 101.509 158.981 100.457 158.357 99.6775C158.63 99.2487 158.961 98.9174 159.351 98.6836C159.702 98.4107 160.111 98.2743 160.579 98.2743C161.32 98.2743 162.021 98.7031 162.684 99.5606C163.307 100.379 163.814 101.49 164.204 102.893C164.594 104.257 164.789 105.797 164.789 107.512C164.789 110.513 164.243 113.125 163.152 115.346C162.06 117.529 160.443 119.225 158.299 120.433C156.116 121.602 153.466 122.187 150.348 122.187C148.126 122.187 146.158 121.875 144.443 121.251C142.689 120.589 141.207 119.692 139.999 118.562C138.791 117.393 137.875 116.009 137.251 114.411C136.589 112.813 136.257 111.078 136.257 109.207C136.257 106.83 136.764 104.745 137.777 102.952C138.791 101.12 140.214 99.697 142.045 98.6836C143.838 97.6312 145.904 97.105 148.243 97.105C149.1 97.105 149.724 97.2999 150.114 97.6897C150.464 98.0794 150.679 98.6251 150.757 99.3267L153.278 117.354ZM147.424 101.548L149.606 117.62C146.619 117.542 144.313 116.764 142.689 115.288C140.935 113.69 140.058 111.682 140.058 109.266C140.058 106.927 140.759 105.095 142.162 103.77C143.527 102.445 145.281 101.704 147.424 101.548Z" fill="black"/>
<path fill-rule="evenodd" clip-rule="evenodd" d="M194.077 47.5795V14.2739C194.077 9.46313 192.966 5.89467 190.746 3.56856C188.579 1.18959 185.724 0.000106812 182.182 0.000106812C178.587 0.000106812 175.732 1.18959 173.617 3.56856C171.556 5.94754 170.525 9.51599 170.525 14.2739V105.864C170.525 110.622 171.582 114.217 173.697 116.649C175.811 119.028 178.64 120.217 182.182 120.217C185.671 120.217 188.526 119.028 190.746 116.649C192.966 114.27 194.077 110.675 194.077 105.864V66.7699H244.907H245.193V70.1798C245.193 78.9555 246.144 86.5154 248.048 92.8593C249.951 99.1504 252.938 104.331 257.008 108.402C261.079 112.42 266.339 115.407 272.789 117.363C279.238 119.266 286.931 120.217 295.865 120.217C303.372 120.217 309.927 119.319 315.531 117.521C318.285 116.638 320.873 115.499 323.296 114.105L323.334 114.146C325.554 116.42 329.229 117.556 334.357 117.556H369.883C376.015 117.556 381.381 117.265 385.98 116.684C390.58 116.05 394.65 114.992 398.192 113.512C403.849 111.027 408.343 107.195 411.673 102.014C415.004 96.7799 416.669 90.9118 416.669 84.4092C416.669 70.3469 409.03 60.8838 393.752 56.0202C405.382 50.6278 411.197 42.1164 411.197 30.4858C411.197 27.1024 410.642 23.904 409.532 20.8907C408.422 17.8244 406.81 15.049 404.695 12.5643C402.58 10.0267 400.148 7.93847 397.399 6.29963C394.175 4.34358 390.527 3.02193 386.456 2.33467C382.385 1.64741 377.575 1.30378 372.024 1.30378L336.743 1.30378C335.104 0.434666 333.215 0.000106812 331.074 0.000106812C327.532 0.000106812 324.703 1.18959 322.589 3.56857C320.474 5.89467 319.417 9.46313 319.417 14.2739V71.9244C319.417 81.8632 317.514 89.2909 313.707 94.2074C309.901 99.0711 303.398 101.503 294.2 101.503C287.538 101.503 282.358 100.313 278.657 97.9345C274.956 95.5026 272.366 92.1192 270.886 87.7842C269.458 83.3963 268.745 77.9511 268.745 71.4486V14.2739C268.745 9.516 267.661 5.94754 265.493 3.56857C263.379 1.18959 260.497 0.000106812 256.85 0.000106812C256.802 0.000106812 256.755 0.000325797 256.708 0.00076377C256.66 0.000325798 256.612 0.000106812 256.564 0.000106812C253.075 0.000106812 250.247 1.18959 248.079 3.56856C245.965 5.94754 244.907 9.51599 244.907 14.2739V47.5795H194.077ZM368.138 65.9325H343.635V99.8726H368.931C384.844 99.8726 392.8 94.1366 392.8 82.6646C392.8 76.7965 390.738 72.5408 386.615 69.8975C382.491 67.2542 376.332 65.9325 368.138 65.9325ZM343.635 18.9875V49.0418H365.204C371.072 49.0418 375.592 48.4867 378.764 47.3766C381.989 46.2664 384.447 44.1517 386.139 41.0326C387.461 38.8123 388.121 36.3275 388.121 33.5785C388.121 27.7104 386.033 23.8247 381.857 21.9215C377.68 19.9655 371.31 18.9875 362.746 18.9875H343.635Z" fill="black"/>
<path d="M20.0299 63.3379H71.1061H120.179V93.3827C120.179 109.976 106.728 123.428 90.1345 123.428H50.0748C33.4815 123.428 20.0299 109.976 20.0299 93.3827V63.3379Z" fill="black"/>
<path d="M0 3.24818H60.0896C82.214 3.24818 100.149 21.1836 100.149 43.308V83.3677H51.577H0V3.24818Z" fill="#0DD1D1"/>
</svg>
